PathFileType	4	(X/Y/Z)	T1_P2_Vision_Movement_3_0-736.trc
DataRate	CameraRate	NumFrames	NumMarkers	Units	OrigDataRate	OrigDataStartFrame	OrigNumFrames
60	60	5	27	m	60	368	736
Frame#	Time	RHip			RKnee			RAnkle			RBigToe			RSmallToe			RHeel			LHip			LKnee			LAnkle			LBigToe			LSmallToe			LHeel			Neck			Head			Nose			RShoulder			RElbow			RWrist			RThumb			RIndex			RPinky			LShoulder			LElbow			LWrist			LThumb			LIndex			LPinky		
		X1	Y1	Z1	X2	Y2	Z2	X3	Y3	Z3	X4	Y4	Z4	X5	Y5	Z5	X6	Y6	Z6	X7	Y7	Z7	X8	Y8	Z8	X9	Y9	Z9	X10	Y10	Z10	X11	Y11	Z11	X12	Y12	Z12	X13	Y13	Z13	X14	Y14	Z14	X15	Y15	Z15	X16	Y16	Z16	X17	Y17	Z17	X18	Y18	Z18	X19	Y19	Z19	X20	Y20	Z20	X21	Y21	Z21	X22	Y22	Z22	X23	Y23	Z23	X24	Y24	Z24	X25	Y25	Z25	X26	Y26	Z26	X27	Y27	Z27
369	6.15	434.62282844926	3673.2846228746607	659.1149721254379	822.1383064926298	3684.2263410199575	658.3759580703769	1211.7975895675152	3754.453765919955	721.3537564131445	1295.8124487787402	3648.530955377424	673.1754107730151	1279.425481108089	3681.176276355757	624.0038259793033	1275.7762834424661	3805.527734015903	758.6596045479217	453.18790447860374	3644.482948521847	871.1096340201834	839.6353477020085	3632.076586901422	859.1410598611227	1218.4016458972817	3694.1666029704693	850.8659874407317	1324.5457792414454	3624.1611384662983	805.8354664791236	1277.9359732015484	3548.9017659112023	820.2886683165738	1258.442122980625	3725.590349526591	863.2703110769411	-124.01386057862418	3626.7058180142353	792.7665986431358	-388.6695164418832	3590.745080727483	783.7453264679808	-233.2179878776984	3478.8046285132896	743.6341210888135	-58.85756533523539	3743.767175854123	659.8686930334067	183.98654477948824	3795.5596527224466	552.6871698005627	54.951425236852636	3515.284529391618	572.2711484884533	-14.416322869200386	3425.8703014198795	634.1674789412634	-18.529733685806658	3377.2729601385026	632.3707046201376	17.725951998142893	3455.972019878498	682.8212679011774	-35.201202133990535	3656.4550829640025	984.1073695299168	222.71063557253447	3578.9985573271774	987.390406872492	479.8076936932417	3557.3529219102297	1006.1857137944825	582.3946864879584	3573.31190056838	967.8749578547216	615.4455281191824	3553.2801232509346	992.5936134630526	613.4411373103272	3532.696517411509	1045.2042204267582
370	6.166666666666667	430.8096340688755	3678.3885289501	661.7643710944951	818.8718695588566	3689.662116530295	661.2147654004477	1225.990631838811	3776.0489946466605	736.7914713579828	1296.2665811380018	3648.609817785363	673.4465018892114	1279.728912687717	3680.965262761796	623.894898421378	1275.9429336762446	3805.619261152858	758.6627874797002	452.992324490001	3644.722368874938	871.2834485811201	839.7724952510881	3632.5088243152945	859.4567504296341	1218.5471101000012	3694.672084582357	851.1667325807515	1328.607319906336	3619.1655763608005	813.6849341678811	1278.0342156040092	3549.298533274704	820.721079187615	1265.5624526825052	3730.527301034869	864.9594962774762	-124.03441377831953	3626.626987285739	792.7590080959762	-388.63960697681273	3590.687108067685	783.665274274543	-237.90637961816142	3482.8362132659513	745.812437673825	-58.9154203194284	3743.68920546923	659.8131226946028	183.96805498627765	3795.25418758711	552.3363012228924	56.37790446018971	3530.584538796928	585.2331312230871	-15.865666441704818	3402.486193167323	625.5827077037812	-14.760161883479832	3367.8074095541056	625.3265289141992	17.81505320425073	3455.735111470105	682.8195546540264	-35.335450597369885	3656.255940260232	983.9943894839015	222.58822123080893	3579.376108417509	987.5877589272633	479.2461092091984	3576.8252624347238	1024.3351027965837	582.3103129898361	3573.1022356865037	967.9554495931006	615.6310783282942	3551.3731904699334	998.283284105187	609.1096002311781	3538.031130085468	1048.9475012460414
371	6.183333333333334	430.6051809459541	3677.875080264847	661.5211013037393	821.8524566231577	3681.329252110083	662.6810454361124	1218.27077000908	3758.3026580149503	722.3750677296651	1296.1493370009428	3648.465325554725	673.3386246192815	1279.6955839004556	3680.951700932717	623.8760891444608	1282.1960045527576	3810.109105452469	759.8369366428344	452.71133887593794	3644.768884246137	871.2793276310557	839.7319805130111	3632.382043169933	859.3417786153638	1218.8743349655358	3692.872143178019	856.7024323760205	1315.9591411976803	3601.337524839642	798.0309488865148	1277.9321677092944	3548.6108424485597	820.2500374439086	1260.2881731974253	3728.3971004988243	863.1803208593844	-124.07616681099555	3626.619564521788	792.6847475798231	-388.6637596666581	3590.8242913802405	783.6511374984098	-237.8964571808009	3482.8651857493905	745.824894860478	-53.982725070836494	3747.6372383056178	661.3177270481686	183.90566407787827	3795.008709152927	552.275302577958	61.42249857340752	3534.2746246024153	586.552047737922	-15.623530580575991	3422.4670780471024	630.7400128960265	-15.125328716008982	3367.994987254825	624.1632715254783	4.482360951074475	3389.6418632990667	624.5728716165812	-35.162299368227465	3656.4442533861925	984.0776088952954	222.64117970998504	3579.3848745492824	987.4469631704414	479.2285763119119	3577.0134488670037	1024.5613669032045	582.2696816108894	3573.3028653606384	968.0050922031381	611.0444528948274	3529.682855205648	984.102712713948	608.9647559148311	3537.7963819032548	1048.819882592809
372	6.2	430.77117363987173	3678.1922511257235	661.6266740670886	822.2065911090048	3684.30698199709	658.4418454037052	1218.4881778816366	3758.4946944893304	722.4506551218352	1288.5306676482019	3628.9765933496046	662.3953423951344	1280.2171428510292	3683.572014713088	620.0582867628389	1282.3507162045703	3810.25319237448	759.8977777230429	452.8573109042839	3644.7168615655687	871.3254761766103	834.3383695680095	3610.024030727217	851.8796051136703	1225.9460979654182	3697.760592610978	858.4055611938697	1323.5063118247635	3616.7799224682144	811.6160980690115	1278.0263853621727	3549.151253755285	820.6211596605858	1265.7171428517177	3730.1338335177106	864.8075495677958	-124.14951852232171	3626.6889645376355	792.7103788202418	-388.602238609329	3590.8723674700536	783.4788780647096	-238.0163959277145	3482.786871622357	745.7597557002482	-54.04846793891909	3747.702085913565	661.3187881655958	183.91270293815361	3794.9670382340832	552.2446406176375	56.53008058808585	3530.2202162784115	585.0132962191764	-15.974953987643987	3402.95810469694	625.6659542124719	-15.07987937996833	3366.214506603123	629.0519384478623	4.393429582835783	3388.9356271346032	624.3802494834607	-35.23118878629712	3656.3519492088767	984.0193600667332	222.48650955253464	3579.715870601016	987.7040668280789	474.57833937049116	3575.582096000468	1023.6777421502554	582.3269708902646	3573.1593678229824	968.1219963770046	611.2614541843776	3530.3263347531165	985.1075361918274	603.0442731193391	3533.4805974427663	1046.8096579053042
373	6.216666666666667	434.74734652661215	3673.4705071070466	659.0846916947088	822.1170316205347	3684.2172917365674	658.153469400121	1218.4366985755496	3758.4171151469986	722.3341638416747	1296.0590372771474	3647.8825524381527	673.2166905403514	1279.6611975010176	3680.7751452186762	623.8366806935044	1275.8085636882258	3805.682912317052	758.6682246941272	453.0421561368786	3644.4346060954504	871.18942769124	839.7469909746778	3632.0325672211025	859.2120035058224	1219.1478210708635	3693.4792424626444	856.9289272198089	1324.825477701686	3624.821600300729	806.2147857021574	1285.9774530821198	3570.734491955646	827.7271480054862	1258.5579926270361	3725.7105812521113	863.3805906673455	-124.24918156796136	3626.735069888544	792.5788853807186	-383.8114566761198	3590.7232254330092	778.3049169994032	-238.00460200742836	3483.035842615296	745.8696101546732	-54.21317504995478	3747.641463625904	661.2295120467985	183.93986929727137	3795.014208658831	552.171577847568	56.53378923786305	3529.7339202989247	584.8807781736248	-16.253391903706042	3401.765625690239	624.7745571272148	-15.461514091259835	3363.9302840015816	622.1328153839261	17.583477858472563	3455.4988908259934	682.763341992423	-35.224173556557325	3656.2690397375936	983.9394159356087	222.34622262042566	3579.8885134943343	987.6897733461872	474.4333482327322	3575.523171247523	1023.7236322864371	582.4781052583606	3573.1861562522295	968.2788098685958	604.4159547544276	3535.251539896838	994.6253116536407	603.0024359882722	3533.942636915758	1047.1914646586108
